<svg xmlns="http://www.w3.org/2000/svg" xmlns:xlink="http://www.w3.org/1999/xlink" width="33.532" height="33.532" viewBox="0 0 33.532 33.532">
  <defs>
    <filter id="Trazado_2329" x="0" y="0" width="33.532" height="33.532" filterUnits="userSpaceOnUse">
      <feOffset dy="3" input="SourceAlpha"/>
      <feGaussianBlur stdDeviation="3" result="blur"/>
      <feFlood flood-opacity="0.161"/>
      <feComposite operator="in" in2="blur"/>
      <feComposite in="SourceGraphic"/>
    </filter>
  </defs>
  <g id="Grupo_10261" data-name="Grupo 10261" transform="translate(-14423.449 13199.271)">
    <g transform="matrix(1, 0, 0, 1, 14423.45, -13199.27)" filter="url(#Trazado_2329)">
      <path id="Trazado_2329-2" data-name="Trazado 2329" d="M7.766,0A7.766,7.766,0,1,1,0,7.766,7.766,7.766,0,0,1,7.766,0Z" transform="translate(9 6)" fill="#fff"/>
    </g>
    <path id="Icon_material-edit" data-name="Icon material-edit" d="M4.5,11.39V13.2H6.314l5.35-5.35L9.85,6.04Zm8.566-4.939a.482.482,0,0,0,0-.682L11.935,4.638a.482.482,0,0,0-.682,0l-.885.885,1.814,1.814.885-.885Z" transform="translate(14431.48 -13194.473)" fill="#0195fb"/>
  </g>
</svg>
