<svg xmlns="http://www.w3.org/2000/svg" xmlns:xlink="http://www.w3.org/1999/xlink" width="33.529" height="33.529" viewBox="0 0 33.529 33.529">
  <defs>
    <filter id="Trazado_2328" x="0" y="0" width="33.529" height="33.529" filterUnits="userSpaceOnUse">
      <feOffset dy="3" input="SourceAlpha"/>
      <feGaussianBlur stdDeviation="3" result="blur"/>
      <feFlood flood-opacity="0.161"/>
      <feComposite operator="in" in2="blur"/>
      <feComposite in="SourceGraphic"/>
    </filter>
  </defs>
  <g id="Grupo_10176" data-name="Grupo 10176" transform="translate(-631.135 -60.969)">
    <g transform="matrix(1, 0, 0, 1, 631.13, 60.97)" filter="url(#Trazado_2328)">
      <path id="Trazado_2328-2" data-name="Trazado 2328" d="M7.765,0A7.765,7.765,0,1,1,0,7.765,7.765,7.765,0,0,1,7.765,0Z" transform="translate(9 6)" fill="#fff"/>
    </g>
    <path id="Trazado_2322" data-name="Trazado 2322" d="M4.446,13.5,3,14.946l1.446,1.446" transform="translate(639.836 59.543)" fill="none" stroke="#eab927" stroke-linecap="round" stroke-linejoin="round" stroke-width="1"/>
    <path id="Trazado_2323" data-name="Trazado 2323" d="M13.5,4.446,14.946,3l1.446,1.446" transform="translate(632.71 66.67)" fill="none" stroke="#eab927" stroke-linecap="round" stroke-linejoin="round" stroke-width="1"/>
    <path id="Trazado_2324" data-name="Trazado 2324" d="M16.392,28.5l-1.446,1.446L13.5,28.5" transform="translate(632.71 49.363)" fill="none" stroke="#eab927" stroke-linecap="round" stroke-linejoin="round" stroke-width="1"/>
    <path id="Trazado_2325" data-name="Trazado 2325" d="M28.5,13.5l1.446,1.446L28.5,16.392" transform="translate(622.529 59.543)" fill="none" stroke="#eab927" stroke-linecap="round" stroke-linejoin="round" stroke-width="1"/>
    <path id="Trazado_2326" data-name="Trazado 2326" d="M3,18h9.64" transform="translate(639.836 56.489)" fill="none" stroke="#eab927" stroke-linecap="round" stroke-linejoin="round" stroke-width="1"/>
    <path id="Trazado_2327" data-name="Trazado 2327" d="M18,3v9.64" transform="translate(629.656 66.67)" fill="none" stroke="#eab927" stroke-linecap="round" stroke-linejoin="round" stroke-width="1"/>
  </g>
</svg>
